HIERARCHY
ROOT Hips
{
	OFFSET 0.000000 0.000000 0.000000
	CHANNELS 6 Xposition Yposition Zposition Zrotation Yrotation Xrotation 
	JOINT LHipJoint
	{
		OFFSET 0.000000 0.000000 0.000000
		CHANNELS 3 Zrotation Yrotation Xrotation
		JOINT LeftUpLeg
		{
			OFFSET 1.363060 -1.794630 0.839290
			CHANNELS 3 Zrotation Yrotation Xrotation
			JOINT LeftLeg
			{
				OFFSET 2.448110 -6.726130 0.000000
				CHANNELS 3 Zrotation Yrotation Xrotation
				JOINT LeftFoot
				{
					OFFSET 2.562200 -7.039590 0.000000
					CHANNELS 3 Zrotation Yrotation Xrotation
					JOINT LeftToeBase
					{
						OFFSET 0.157640 -0.433110 2.322550
						CHANNELS 3 Zrotation Yrotation Xrotation
						End Site
						{
							OFFSET 0.000000 0.000000 0.000000
						}
					}
				}
			}
		}
	}
	JOINT RHipJoint
	{
		OFFSET 0.000000 0.000000 0.000000
		CHANNELS 3 Zrotation Yrotation Xrotation
		JOINT RightUpLeg
		{
			OFFSET -1.305520 -1.794630 0.839290
			CHANNELS 3 Zrotation Yrotation Xrotation
			JOINT RightLeg
			{
				OFFSET -2.542530 -6.985550 0.000000
				CHANNELS 3 Zrotation Yrotation Xrotation
				JOINT RightFoot
				{
					OFFSET -2.568260 -7.056230 0.000000
					CHANNELS 3 Zrotation Yrotation Xrotation
					JOINT RightToeBase
					{
						OFFSET -0.164730 -0.452590 2.363150
						CHANNELS 3 Zrotation Yrotation Xrotation
						End Site
						{
							OFFSET 0.000000 0.000000 0.000000
						}
					}
				}
			}
		}
	}
	JOINT LowerBack
	{
		OFFSET 0.000000 0.000000 0.000000
		CHANNELS 3 Zrotation Yrotation Xrotation
		JOINT Spine
		{
			OFFSET 0.028270 2.035590 -0.193380
			CHANNELS 3 Zrotation Yrotation Xrotation
			JOINT Spine1
			{
				OFFSET 0.056720 2.048850 -0.042750
				CHANNELS 3 Zrotation Yrotation Xrotation
				JOINT Neck
				{
					OFFSET 0.000000 0.000000 0.000000
					CHANNELS 3 Zrotation Yrotation Xrotation
					JOINT Neck1
					{
						OFFSET -0.054170 1.746240 0.172020
						CHANNELS 3 Zrotation Yrotation Xrotation
						JOINT Head
						{
							OFFSET 0.104070 1.761360 -0.123970
							CHANNELS 3 Zrotation Yrotation Xrotation
							End Site
							{
								OFFSET 0.000000 0.000000 0.000000
							}
						}
					}
				}
				JOINT LeftShoulder
				{
					OFFSET 0.000000 0.000000 0.000000
					CHANNELS 3 Zrotation Yrotation Xrotation
					JOINT LeftArm
					{
						OFFSET 3.362410 1.200890 -0.311210
						CHANNELS 3 Zrotation Yrotation Xrotation
						JOINT LeftForeArm
						{
							OFFSET 4.983000 -0.000000 -0.000000
							CHANNELS 3 Zrotation Yrotation Xrotation
							JOINT LeftHand
							{
								OFFSET 3.483560 -0.000000 -0.000000
								CHANNELS 3 Zrotation Yrotation Xrotation
								JOINT LeftFingerBase
								{
									OFFSET 0.000000 0.000000 0.000000
									CHANNELS 3 Zrotation Yrotation Xrotation
									JOINT LeftHandIndex1
									{
										OFFSET 0.715260 -0.000000 -0.000000
										CHANNELS 3 Zrotation Yrotation Xrotation
										End Site
										{
											OFFSET 0.000000 0.000000 0.000000
										}
									}
								}
								JOINT LThumb
								{
									OFFSET 0.000000 0.000000 0.000000
									CHANNELS 3 Zrotation Yrotation Xrotation
									End Site
									{
										OFFSET 0.000000 0.000000 0.000000
									}
								}
							}
						}
					}
				}
				JOINT RightShoulder
				{
					OFFSET 0.000000 0.000000 0.000000
					CHANNELS 3 Zrotation Yrotation Xrotation
					JOINT RightArm
					{
						OFFSET -3.136600 1.374050 -0.404650
						CHANNELS 3 Zrotation Yrotation Xrotation
						JOINT RightForeArm
						{
							OFFSET -5.241900 -0.000000 -0.000000
							CHANNELS 3 Zrotation Yrotation Xrotation
							JOINT RightHand
							{
								OFFSET -3.444170 -0.000000 -0.000000
								CHANNELS 3 Zrotation Yrotation Xrotation
								JOINT RightFingerBase
								{
									OFFSET 0.000000 0.000000 0.000000
									CHANNELS 3 Zrotation Yrotation Xrotation
									JOINT RightHandIndex1
									{
										OFFSET -0.622530 -0.000000 -0.000000
										CHANNELS 3 Zrotation Yrotation Xrotation
										End Site
										{
											OFFSET 0.000000 0.000000 0.000000
										}
									}
								}
								JOINT RThumb
								{
									OFFSET 0.000000 0.000000 0.000000
									CHANNELS 3 Zrotation Yrotation Xrotation
									End Site
									{
										OFFSET 0.000000 0.000000 0.000000
									}
								}
							}
						}
					}
				}
			}
		}
	}
}
MOTION
Frames: 4
Frame Time: 0.008333
-2.376613 17.423373 11.028200 -178.761883 39.499772 -169.234607 -7.177660 2.626160 7.025298 -6.432741 6.126906 4.625815 -1.795198 -0.323078 2.133828 -0.667213 5.093395 -2.788108 0.149600 -2.492000 -6.867600 4.702872 1.959404 -3.777743 3.160079 15.679674 -40.374706 -1.554303 -11.747200 30.879956 2.672677 -10.448435 -6.142483 -0.773700 5.616100 -15.674600 2.763565 -5.743743 -7.408631 1.796200 -6.856994 -7.341956 -7.028720 -4.128903 -4.531443 -1.489364 -3.260310 -3.900279 3.776419 -4.069164 15.586711 2.597000 -1.815600 6.018300 6.452717 -0.981473 -0.052283 -55.591463 -24.601723 52.029250 39.497791 -47.668998 -20.138702 0.762666 -1.816024 -12.378251 -5.358742 6.338265 -0.826300 -7.125000 0.000000 0.000000 -27.082700 36.880700 5.957500 -11.735512 0.062159 1.200839 59.686925 -30.434786 68.621964 -66.036142 58.580613 -39.385968 -0.457213 1.291434 -0.926762 12.014576 -7.926741 -2.031300 7.125000 0.000000 0.000000 32.518600 -37.152400 7.248900 
-2.261887 17.382534 10.957575 -178.642318 39.501199 -168.957174 -7.121445 2.667482 7.043289 -6.231178 6.042977 4.906603 -1.781778 -0.318421 2.146172 -0.740792 5.281726 -3.035586 0.183800 -2.761200 -7.614700 4.715512 1.955815 -3.805030 3.079879 15.910714 -40.376696 -1.511771 -11.684921 30.664480 2.686001 -10.467876 -5.815223 -0.753700 5.545000 -15.469700 2.860298 -5.737708 -7.454617 1.798257 -6.850114 -7.336381 -7.084497 -4.135276 -4.502587 -1.349413 -3.303908 -3.953524 3.794769 -4.146367 15.456894 2.570000 -1.842600 5.975300 6.463340 -0.984011 -0.043448 -55.460331 -24.769010 52.061046 39.650347 -47.733620 -20.245824 0.765420 -1.823879 -12.433702 -5.447398 6.454754 -0.851700 -7.125000 0.000000 0.000000 -27.192400 36.986000 5.908300 -11.728328 0.064274 1.193142 59.550841 -30.630980 68.566535 -66.201479 58.626162 -39.564817 -0.468576 1.301362 -0.854062 12.466324 -7.850954 -2.095000 7.125000 0.000000 0.000000 32.834400 -37.053000 7.437500 
-2.148214 17.339802 10.892423 -178.560034 39.559803 -168.709051 -7.080701 2.707851 7.066943 -6.053667 6.002839 5.152861 -1.768183 -0.315787 2.157074 -0.816987 5.473236 -3.219026 0.216700 -2.996500 -8.269100 4.720411 1.943990 -3.823713 3.000257 16.228323 -40.399698 -1.511060 -11.665503 30.582921 2.770333 -10.672768 -5.277931 -0.778500 5.633400 -15.724300 2.862913 -5.796030 -7.398730 1.854425 -6.933416 -7.368933 -6.859596 -4.166232 -4.647733 -1.519060 -3.294792 -3.802965 3.841310 -4.119727 15.327456 2.615100 -1.843200 5.898100 6.469539 -0.988955 -0.043197 -55.515493 -24.679728 51.931475 39.780240 -47.805010 -20.355715 0.767097 -1.829164 -12.390567 -5.607749 6.535126 -0.884600 -7.125000 0.000000 0.000000 -27.346800 37.050100 5.900900 -11.700560 0.076992 1.166564 58.961994 -30.730999 68.872352 -66.469854 58.664190 -39.874946 -0.490563 1.327883 -0.850803 13.337833 -7.977966 -2.283500 7.125000 0.000000 0.000000 33.548000 -37.103800 7.605200 
-2.023594 17.291280 10.802432 -178.921382 39.449077 -168.845900 -7.032060 2.729099 7.078476 -6.207256 5.773271 5.712997 -1.770475 -0.311667 2.152533 -0.940274 5.783745 -3.614986 0.266900 -3.323400 -9.180400 4.670412 1.938949 -3.831433 2.804945 15.946623 -40.338520 -1.555526 -11.729941 30.697965 2.791174 -10.700496 -4.472750 -0.886800 6.002900 -16.792800 2.667288 -5.787307 -7.540939 1.797136 -6.897364 -7.325524 -7.036144 -4.160712 -4.432145 -1.389153 -3.425503 -3.882478 3.849351 -4.315969 15.266925 2.592100 -1.928800 5.881100 6.473507 -0.980281 -0.028646 -55.478121 -24.922181 52.076459 39.983142 -47.911694 -20.499602 0.770390 -1.833555 -12.393999 -5.753234 6.651400 -0.919600 -7.125000 0.000000 0.000000 -27.502200 37.146900 5.868500 -11.727389 0.050354 1.173786 59.023060 -30.922975 68.577884 -66.532631 58.713266 -39.967337 -0.493858 1.338824 -0.780408 13.837611 -8.108983 -2.406400 7.125000 0.000000 0.000000 33.971400 -37.178300 7.661000 
